<?xml version="1.0" encoding="UTF-8"?>
<svg id="Capa_2" data-name="Capa 2" xmlns="http://www.w3.org/2000/svg" viewBox="0 0 976 558">
  <defs>
    <style>
      .cls-1 {
        fill: #884ffc;
      }
    </style>
  </defs>
  <g id="Capa_1-2" data-name="Capa 1">
    <g>
      <rect class="cls-1" y="283" width="80" height="29"/>
      <circle class="cls-1" cx="40" cy="283" r="40"/>
      <circle class="cls-1" cx="40" cy="312" r="40"/>
    </g>
    <g>
      <rect class="cls-1" x="112" y="239" width="80" height="103"/>
      <circle class="cls-1" cx="152" cy="239" r="40"/>
      <circle class="cls-1" cx="152" cy="342" r="40"/>
    </g>
    <g>
      <rect class="cls-1" x="224" y="98" width="80" height="373"/>
      <circle class="cls-1" cx="264" cy="471" r="40"/>
      <circle class="cls-1" cx="264" cy="98" r="40"/>
    </g>
    <g>
      <rect class="cls-1" x="335" y="195" width="80" height="180"/>
      <circle class="cls-1" cx="375" cy="195" r="40"/>
      <circle class="cls-1" cx="375" cy="375" r="40"/>
    </g>
    <g>
      <rect class="cls-1" x="447" y="38" width="80" height="480"/>
      <circle class="cls-1" cx="487" cy="40" r="40"/>
      <circle class="cls-1" cx="487" cy="518" r="40"/>
    </g>
    <g>
      <rect class="cls-1" x="559" y="179" width="80" height="188"/>
      <circle class="cls-1" cx="599" cy="367" r="40"/>
      <circle class="cls-1" cx="599" cy="181" r="40"/>
    </g>
    <g>
      <rect class="cls-1" x="672" y="139" width="80" height="271"/>
      <circle class="cls-1" cx="712" cy="139" r="40"/>
      <circle class="cls-1" cx="712" cy="410" r="40"/>
    </g>
    <g>
      <rect class="cls-1" x="783" y="233" width="80" height="104"/>
      <circle class="cls-1" cx="823" cy="233" r="40"/>
      <circle class="cls-1" cx="823" cy="337" r="40"/>
    </g>
    <g>
      <rect class="cls-1" x="896" y="276" width="80" height="29"/>
      <circle class="cls-1" cx="936" cy="276" r="40"/>
      <circle class="cls-1" cx="936" cy="305" r="40"/>
    </g>
  </g>
</svg>